<svg width="32" height="32" viewBox="0 0 32 32" fill="none" xmlns="http://www.w3.org/2000/svg">
<g id="air-china-logo 1">
<g id="g10">
<g id="logo">
<path d="M5.40979 9.46791H8.12166C8.12166 8.98447 8.53522 8.04647 9.59362 8.04647C10.0068 8.04647 10.0774 8.13761 10.6114 8.02672C11.3071 7.79506 11.6196 7.39138 11.7609 7.06896C11.7609 7.06896 12.0332 8.21812 10.944 8.82308C10.3292 9.15575 9.38209 8.89409 9.38209 8.89409C9.38209 8.89409 8.61611 8.78282 8.5151 9.46791C8.9484 9.46791 9.624 9.9016 9.624 10.6478V16.9583C9.624 17.4117 9.98667 17.8857 10.5407 17.8857C11.0356 17.8857 11.4594 17.4926 11.4594 16.9583V12.5326C11.4594 5.99993 16.5398 3.2892 19.4928 3.06704C21.9427 2.88513 23.5962 3.10691 26.5902 1C26.5902 1 25.6526 4.66963 21.4091 5.54688C20.6321 5.7079 18.2932 5.43599 16.0959 7.72443C14.3516 9.53893 14.1709 11.2125 14.1709 13.4201V17.3214C14.1709 19.025 12.7999 20.7487 10.7025 20.7487C8.67687 20.7487 7.25505 19.1359 7.25505 17.3214V10.6983C7.25505 10.1538 6.86162 9.66007 6.23653 9.66007H5.40979V9.46791Z" fill="#E30F18"/>
<path d="M7.78946 20.3259C7.78946 20.3259 10.0167 22.5839 12.9508 20.8799C14.8963 19.7509 14.9567 17.4017 14.9567 17.4017V12.15C14.9567 12.15 14.8758 9.51864 17.2447 7.63313C18.8986 6.33321 20.4305 6.42359 21.4889 6.29257C24.2012 5.95953 25.4107 4.24681 25.4107 4.24681C25.4407 4.53884 25.1487 7.68364 21.7514 8.58101C21.0552 8.7633 17.3256 8.39987 17.3256 12.7147V17.9155C17.3256 19.0043 17.0636 20.9301 15.0273 22.2915C12.9307 23.6826 9.53293 23.4604 7.78946 20.3259Z" fill="#E30F18"/>
<path d="M10.9239 23.6016C14.2411 24.5294 18.0414 22.2007 18.0414 18.3396V13.7832C18.0414 12.4522 19.1499 10.6984 21.1467 10.6984C23.2438 10.6984 24.241 12.5828 24.241 13.7832C24.241 14.5488 23.938 16.0816 22.4975 16.0816C21.3476 16.0816 20.612 14.9115 20.9751 13.9541C20.8946 14.2769 21.0654 14.5895 21.4087 14.5895C21.741 14.5895 21.9229 14.2769 21.8622 13.8839C21.8622 13.8034 21.7615 13.0773 20.9546 13.0773C20.279 13.0773 20.0576 13.6925 20.0576 13.9948V18.0476C20.0576 22.3822 15.3394 25.5874 10.9239 23.6016Z" fill="#E30F18"/>
</g>
<g id="name">
<path d="M7.68291 27.5684H6.55066L5.58435 31.9027H6.70915L7.68291 27.5684Z" fill="#1D1D1B"/>
<path d="M22.6263 27.5684H21.4941L20.528 31.9027H21.6532L22.6263 27.5684Z" fill="#1D1D1B"/>
<path d="M16.228 29.2867H15.1029L15.324 28.3002C15.324 28.3002 15.3857 28.1277 15.1791 28.1277H14.6196C14.6196 28.1277 14.4953 28.1207 14.4606 28.2379L13.8324 31.0815C13.8324 31.0815 13.7911 31.2683 14.0054 31.2683H14.4953C14.4953 31.2683 14.6196 31.337 14.6815 31.1164L14.8547 30.3777H16.0141L15.7793 31.351C15.7793 31.351 15.6069 31.8478 15.0061 31.8478H13.2254C13.2254 31.8478 12.7978 31.8206 12.7978 31.2127L13.488 28.1415C13.488 28.1415 13.6329 27.5343 14.1158 27.5343H16.0273C16.0273 27.5343 16.559 27.5343 16.4143 28.3138C16.2622 29.094 16.228 29.2867 16.228 29.2867Z" fill="#1D1D1B"/>
<path d="M19.4578 27.5684L19.0646 29.3289H18.2296L18.6227 27.5684H17.498L16.5317 31.9027H17.6496L18.1051 29.8806H18.9402L18.4847 31.9027H19.6167L20.5834 27.5684H19.4578Z" fill="#1D1D1B"/>
<path d="M25.449 27.5684L24.945 29.9912L24.5518 27.5684H23.503L22.5986 31.9027H23.6476L24.124 29.6253L24.545 31.9027H25.594L26.4982 27.5684H25.449Z" fill="#1D1D1B"/>
<path fill-rule="evenodd" clip-rule="evenodd" d="M3.79704 29.943H3.95597L3.79704 30.5706L3.47282 31.8963H3.79704H4.64612L5.62602 27.5618H3.79704H3.24452C2.64415 27.5618 2.46481 28.2379 2.46481 28.2379L1.57446 31.8892L2.67181 31.8963L3.15496 29.943H3.79704ZM4.05233 29.3978L4.34911 28.2104H3.79704H3.53428L3.25177 29.3978H3.79704H4.05233Z" fill="#1D1D1B"/>
<path fill-rule="evenodd" clip-rule="evenodd" d="M10.9407 27.5479H9.82252H9.49808C9.49808 27.5479 9.49808 27.5547 9.49127 27.5686H8.56646L7.60016 31.9028H8.72495L9.03556 30.5228C9.23576 30.5228 9.28405 30.6815 9.28405 30.6815L9.60125 31.8754H9.82252H10.7199L10.2916 30.4398C10.9065 30.4398 10.9958 30.0188 10.9958 30.0188C10.9958 30.0188 11.3686 28.6385 11.4447 28.0519C11.4447 28.0447 11.4515 28.0447 11.4515 28.0381V27.8726C11.396 27.4858 10.9407 27.5479 10.9407 27.5479ZM10.395 28.1621H9.82252H9.57381L9.243 29.8603H9.82252H10.078L10.395 28.1621Z" fill="#1D1D1B"/>
<path fill-rule="evenodd" clip-rule="evenodd" d="M28.6241 29.8464H28.7484L28.6241 30.3436L28.2446 31.8824H28.6241H29.4389L30.4257 27.4993C30.4257 27.4993 29.4111 27.4925 28.6241 27.4925C28.4031 27.4857 28.1958 27.4857 28.0303 27.4857C27.3195 27.4857 27.1332 28.3139 27.1332 28.3139L26.3188 31.8824H27.4163L27.9616 29.8464H28.6241ZM29.1692 28.1276H28.6241H28.3824L28.0859 29.3147H28.6241H28.8864L29.1692 28.1276Z" fill="#1D1D1B"/>
</g>
</g>
</g>
</svg>
