<svg width="32" height="32" viewBox="0 0 32 32" fill="none" xmlns="http://www.w3.org/2000/svg">
<g id="logo">
<path id="background" d="M32 0H0V32H32V0Z" fill="#D71A21"/>
<path id="Union" fill-rule="evenodd" clip-rule="evenodd" d="M16.3436 7.76568C16.4854 7.89963 16.7839 8.25215 16.6048 8.4284C16.4481 8.57646 16.2019 8.81617 16.2019 8.81617C16.1869 8.73157 15.9556 8.52006 15.9556 8.52006V9.23214C15.9481 9.5212 15.8362 9.59875 15.8362 9.59875C15.8362 9.59875 16.3959 10.1205 16.3959 10.7973V11.4882C16.4033 11.6151 16.3511 11.7491 16.2541 11.8407C16.2019 11.8971 15.687 12.3907 15.6049 12.4541C15.4855 12.5528 15.3362 12.6092 15.1795 12.6022H13.2468C12.9409 12.6022 12.6274 12.3766 12.6274 12.151C12.6274 12.0946 12.6349 11.4741 12.6349 11.4741L12.6481 11.4886C12.7416 11.5911 12.8472 11.7068 13.0752 11.7068C13.2692 11.7068 13.4632 11.5658 13.5155 11.5094C13.5677 11.453 14.9781 10.0711 14.9781 10.0711C14.9781 10.0711 14.3214 9.493 13.8886 9.21804C13.6796 9.08408 13.3961 9.25329 13.3513 9.42955C13.217 9.97947 13.3513 10.8114 13.3513 10.8114L12.8215 10.3108C12.6051 10.1064 12.6125 9.64811 12.8737 9.4084C12.911 9.36609 13.3065 8.95718 13.799 8.95718H14.5676C15.0825 8.95718 15.6497 9.44365 15.6497 9.44365C15.6944 9.39429 15.7243 9.33789 15.7317 9.27444C15.7317 9.02063 15.7243 8.35085 15.7243 8.35085C15.3362 7.98424 15.284 7.60352 15.4706 7.42726C15.8213 7.0959 15.9481 6.98309 15.9481 6.98309C15.9481 6.98309 15.9332 7.38496 16.3436 7.76568ZM13.9184 11.4318C13.8894 11.4603 13.864 11.4855 13.8413 11.508C13.7121 11.6363 13.6677 11.6803 13.5155 11.7702H15.6944C16.2839 11.7702 16.1646 11.4248 16.0601 11.2485C15.8437 10.889 15.1571 10.2262 15.1571 10.2262C15.1571 10.2262 13.9557 11.3966 13.9184 11.4318ZM17.0973 8.79499C17.0973 8.48478 17.2093 8.18161 17.4107 7.93485C17.4451 7.90242 17.6033 7.76533 17.7884 7.60503L17.7885 7.60496L17.7885 7.60493C18.0862 7.34709 18.4531 7.02923 18.4853 6.99011L18.7465 6.99716C18.7189 7.02651 18.6338 7.09809 18.54 7.17703C18.431 7.26875 18.3101 7.37039 18.254 7.42723C18.06 7.61759 17.9555 7.87845 17.963 8.13931V10.7338C17.963 11.0793 17.8212 11.4106 17.5749 11.6645C17.5067 11.7465 16.9079 12.252 16.6602 12.461L16.6601 12.4611L16.66 12.4611L16.6596 12.4615L16.6589 12.4621L16.6586 12.4624C16.609 12.5042 16.5738 12.534 16.56 12.5457L16.3138 12.5387C16.3349 12.5148 16.4851 12.3847 16.625 12.2635L16.6252 12.2634C16.7324 12.1705 16.8336 12.0828 16.866 12.0522C17.0003 11.8901 17.0824 11.6997 17.0973 11.4953V8.79499ZM16.3511 18.609L15.3138 17.7559L17.0451 17.7418C17.7167 17.7418 18.2017 17.3047 18.3734 17.1496C19.3509 16.2542 19.3509 15.6902 19.045 15.38C18.9853 15.3165 18.6495 14.9922 18.6495 14.9922V13.9135C18.6495 13.9135 18.9554 14.1885 19.0002 14.2308C19.2539 14.4423 19.3957 14.7454 19.4032 15.0627V16.4657C19.4032 16.9733 19.2465 17.5162 18.8211 17.9181C18.351 18.3622 17.7092 18.609 17.0451 18.609H16.3511ZM18.2018 11.9958C18.0898 12.1086 17.9779 12.3907 17.9779 12.6445V13.1732H18.545C18.7689 13.1732 19.0599 12.9829 19.1196 12.8842V12.3554C19.2017 12.4682 19.3062 12.574 19.4256 12.6586C19.4853 12.5881 20.0076 11.9958 20.4404 11.9888C21.1643 11.9817 21.0001 12.8489 20.7091 13.1239C20.6492 13.1805 20.4641 13.3419 20.2996 13.4853C20.1978 13.5742 20.1038 13.6562 20.0524 13.702C19.7091 14.0122 19.1196 13.8642 19.1196 13.0675C19.1196 13.0675 18.4928 13.6315 18.3958 13.7091C18.2988 13.7866 17.9779 14.1109 17.9779 14.1109V15.5139C17.9779 16.1665 17.7583 16.3975 17.5675 16.598L17.5525 16.6138C17.4779 16.6913 16.6795 17.3823 16.5675 17.4598L16.3063 17.4669C16.3063 17.4669 16.7765 17.065 16.866 16.9733C16.9705 16.8676 17.0973 16.6561 17.0973 16.3036C17.0973 16.2119 17.0824 14.1039 17.0824 14.1039H13.4408C12.1722 14.1039 11.9036 12.7784 11.8961 12.4189V11.0863C11.8961 10.8678 11.7469 10.5012 11.5156 10.3884H11.8738C11.9185 10.4025 12.1424 10.4871 12.1424 11.3049C12.1424 11.3049 12.1275 12.2496 12.1275 12.306C12.1275 12.722 12.4782 13.1944 12.9782 13.1944L17.0973 13.1873C17.0973 13.0816 17.2093 12.6868 17.4108 12.4753C17.5227 12.3554 18.4107 11.594 18.5077 11.5164H18.7689C18.7584 11.5263 18.7165 11.562 18.6598 11.6103L18.6592 11.6108L18.6591 11.6108L18.6591 11.6108L18.659 11.6109L18.659 11.6109L18.659 11.6109C18.5142 11.7342 18.2734 11.9392 18.2092 12.0099L18.2018 11.9958ZM19.5524 12.7925C19.6569 12.9265 19.7763 13.0604 19.9032 13.1803C20.3509 13.5187 20.5598 13.1521 20.2614 12.7714C20.142 12.6163 19.6868 12.6586 19.5524 12.7925ZM14.4631 16.0215C14.5004 15.9933 15.1347 15.4928 15.1347 15.3024C15.1347 15.0902 15.0176 14.9841 14.7352 14.7283C14.6611 14.6613 14.5757 14.5839 14.478 14.4916L13.7841 15.1473C14.2542 15.5985 14.4183 15.8171 14.4631 16.0215ZM11.0753 13.3072H11.4335C11.4335 13.3072 11.7021 13.3072 11.6947 14.2096V15.098C11.6947 16.1837 12.7319 16.8253 13.4931 16.8112H15.5751C16.0377 16.8112 16.4258 16.1767 15.9333 15.81C15.8288 15.7325 15.59 15.4928 15.59 15.4928V14.3929C15.59 14.3929 15.8288 14.6115 15.9183 14.6961C15.9349 14.7117 15.9533 14.7281 15.973 14.7456C16.1223 14.8781 16.3437 15.0746 16.3437 15.4857V16.0216C16.3437 16.5178 16.1675 16.704 15.9905 16.891C15.9714 16.9113 15.9522 16.9315 15.9333 16.9522L15.9235 16.9625C15.8572 17.0331 15.703 17.1972 15.5825 17.2977C15.2393 17.5867 15.0378 17.7136 14.4707 17.7136H13.5229C12.3887 17.7136 11.4559 16.7266 11.4559 15.662V14.0193C11.4559 13.5046 11.0753 13.3072 11.0753 13.3072ZM13.7169 15.3095C13.7169 15.4999 13.0827 16.0004 13.0453 16.0286C13.0006 15.8242 12.8364 15.6056 12.3663 15.1544L13.0603 14.4987C13.1603 14.5932 13.2477 14.6719 13.3234 14.7399L13.3234 14.74C13.5977 14.9867 13.7169 15.094 13.7169 15.3095ZM5.32188 22.6065H6.44122C7.14267 22.6065 7.3143 22.2752 7.3143 22.2752L7.30684 22.536C7.30684 22.7334 7.12028 23.093 6.583 23.093H4.21746C4.21746 23.093 3.92643 23.0718 3.92643 22.3809L3.91151 19.6313C3.92643 18.9474 3.50854 18.609 3.50854 18.609H5.9114C7.14267 18.609 7.23968 19.4057 7.23968 19.4057C6.73579 19.0952 6.25334 19.0953 5.63847 19.0955L5.59798 19.0955H4.85922C4.97115 19.2153 4.97115 19.6384 4.97115 19.6384V20.1248H5.48605C5.94125 20.1107 6.35913 20.3504 6.55315 20.7382C6.23427 20.5695 5.90448 20.5759 5.62435 20.5813H5.62433H5.62431H5.62429H5.62428H5.62426H5.62424H5.62422H5.6242C5.57662 20.5822 5.53047 20.5831 5.48605 20.5831C5.20994 20.5831 4.96369 20.5901 4.96369 20.5901V22.0989C4.96924 22.1335 4.9733 22.1691 4.97735 22.2045C5.00054 22.4073 5.02332 22.6065 5.32188 22.6065ZM12.7393 22.3739V20.4491C12.7393 19.7018 12.0976 19.5044 11.6125 19.5044C11.0105 19.5044 10.8051 19.9554 10.7156 20.152L10.7021 20.1812C10.5604 19.7159 10.0604 19.5044 9.65742 19.5044C8.88881 19.5044 8.69479 20.1953 8.69479 20.1953C8.69479 20.1953 8.67987 19.5255 8.0605 19.5255H7.45605C7.45605 19.5255 7.80678 19.6595 7.80678 20.2376V22.3739C7.80678 23.0789 8.10527 23.093 8.10527 23.093H9.10522C8.86642 22.9238 8.72464 22.6559 8.72464 22.3668V20.4703C8.73957 20.3857 8.88881 20.1037 9.31416 20.1037C9.56042 20.1037 9.82906 20.3434 9.82159 20.6113V22.3739C9.82159 23.086 10.1201 23.093 10.1201 23.093H11.12C10.8812 22.9167 10.7395 22.6559 10.7395 22.3668V20.4703C10.8365 20.1953 11.1499 20.0402 11.4484 20.1319C11.6722 20.2024 11.8289 20.3927 11.8364 20.6183V22.3739C11.8439 23.093 12.1349 23.086 12.1349 23.086H13.1348C12.8886 22.9167 12.7468 22.6559 12.7393 22.3739ZM14.8661 23.093C14.6273 22.9238 14.4856 22.6559 14.4856 22.3739L14.4781 22.3598V20.3152C14.4781 19.5185 14.0378 19.5185 13.8214 19.5185H13.217C13.217 19.5185 13.5602 19.6666 13.5602 20.2306V22.3809C13.5602 23.1 13.8662 23.093 13.8662 23.093H14.8661ZM17.56 19.7935C17.56 19.7935 17.463 19.5397 17.0526 19.5397C16.4257 19.5397 16.2765 20.2447 16.2765 20.2447C16.2243 19.6877 16.0675 19.5256 15.6273 19.5256H15.0228C15.0228 19.5256 15.3736 19.6595 15.3736 20.2377V22.3739C15.3736 23.0789 15.672 23.093 15.672 23.093H16.672C16.4332 22.9238 16.2914 22.6559 16.2914 22.3739V20.6184C16.3138 20.4703 16.4033 20.3364 16.5377 20.2588C16.8735 20.0473 17.3137 20.1107 17.5749 20.3998L17.56 19.7935ZM22.7985 20.0614C22.6194 19.9697 22.4179 19.9204 22.209 19.9204H21.9553V22.395C21.9627 22.67 22.1045 22.9308 22.3433 23.093H21.3508C21.3508 23.093 21.0449 23.093 21.0449 22.4021V19.9204L20.4106 19.9133C20.4106 19.9133 21.0076 19.6383 21.2911 19.4198C21.5523 19.2153 21.7836 18.9756 21.9627 18.7077V19.5255H22.7985V20.0614ZM25.2387 20.999C24.9465 21.2861 24.6869 21.4003 24.4555 21.502C24.2437 21.5951 24.0556 21.6778 23.888 21.8733C23.888 21.8733 23.9477 22.4232 24.388 22.6136C24.5372 22.677 25.1566 22.8885 25.5521 22.2399V22.818C25.5521 22.818 25.2984 23.1 24.485 23.1C23.5074 23.1 22.8358 22.3738 22.8358 21.3868C22.8358 20.4139 23.3806 19.5185 24.4178 19.5114C25.4252 19.4973 25.9774 20.2729 25.2387 20.999ZM24.6268 20.7734C24.7909 20.4844 24.9252 19.7511 24.3581 19.7934C23.7014 19.8428 23.8283 21.4855 23.8283 21.4855C23.9066 21.4038 23.9997 21.3452 24.0985 21.283C24.2727 21.1733 24.4649 21.0523 24.6268 20.7734ZM14.4706 18.7994C14.4706 19.032 14.2766 19.2294 14.0229 19.2365C13.7692 19.2365 13.5602 19.0461 13.5602 18.8064C13.5602 18.5738 13.7617 18.3834 14.008 18.3763C14.2542 18.3763 14.4632 18.5597 14.4706 18.7994ZM18.5973 22.6841C18.3734 22.6841 18.2093 22.4585 18.2093 22.2329C18.2093 21.5775 18.6276 21.3366 18.9309 21.1619C19.0387 21.0997 19.132 21.046 19.1868 20.985V22.4867C19.1732 22.4966 19.1598 22.5076 19.1456 22.5192C19.0585 22.5903 18.9437 22.6841 18.5973 22.6841ZM19.1868 20.6395C19.1152 20.7574 18.8925 20.8469 18.6274 20.9535C18.0366 21.191 17.2351 21.5131 17.4257 22.4232C17.5377 22.945 17.9033 23.1001 18.366 23.1001C18.8137 23.1001 19.0898 22.8815 19.2017 22.67C19.2689 23.0648 19.4853 23.093 19.4853 23.093H20.4853C20.2465 22.9238 20.0972 22.6629 20.0972 22.3809V20.3716C20.0972 19.8922 19.5375 19.5185 18.9406 19.5185C18.6048 19.5115 18.2839 19.6031 18.0078 19.7794V20.3998C18.0078 20.3998 18.2167 19.9063 18.7316 19.9063C19.2391 19.9063 19.2764 20.146 19.2764 20.2658C19.2838 20.3927 19.2614 20.5267 19.1868 20.6395ZM26.7088 22.7052C27.2162 22.7052 27.455 22.3739 27.4475 22.1201C27.4401 21.9438 27.3356 21.7605 27.052 21.6124C26.8729 21.5208 26.7013 21.4221 26.5371 21.3093C26.1715 21.0484 25.9849 20.7805 25.9775 20.3575C25.9625 19.8781 26.5073 19.5044 27.1043 19.5044C27.4475 19.5044 27.7833 19.6031 28.0595 19.7864V20.3857C28.0595 20.3857 27.843 19.8922 27.3505 19.8922C26.8506 19.8922 26.7834 20.1319 26.7909 20.2517C26.7909 20.3152 26.8879 20.5126 27.0744 20.6183C27.1271 20.6489 27.1822 20.6798 27.2383 20.7114C27.5321 20.8765 27.8578 21.0596 28.052 21.3022C28.1938 21.4785 28.2759 21.697 28.2833 21.9226C28.2982 22.6065 27.6043 23.093 26.9252 23.093C26.5894 23.093 26.261 23.0084 25.9775 22.8392V22.2047C25.9775 22.2047 26.1864 22.7052 26.7088 22.7052Z" fill="white"/>
</g>
</svg>
